<svg width="143" height="122" viewBox="0 0 143 122" fill="none" xmlns="http://www.w3.org/2000/svg">
<g clip-path="url(#clip0)">
<g opacity="0.5">
<path opacity="0.5" d="M78.9516 0.00371776L65.5976 88.2886L129.656 97.9292L143.01 9.64431L78.9516 0.00371776Z" fill="url(#paint0_linear)"/>
</g>
<path d="M79.6692 0.777088L66.6103 87.1104L129.038 96.5056L142.097 10.1724L79.6692 0.777088Z" fill="#F5F5F5"/>
<path d="M127.376 46.2497L82.3188 39.4688L81.9068 42.1929L126.964 48.9739L127.376 46.2497Z" fill="#E0E0E0"/>
<path d="M126.346 53.0583L81.2889 46.2773L80.8769 49.0015L125.934 55.7825L126.346 53.0583Z" fill="#E0E0E0"/>
<path d="M130.671 24.4582L107.459 20.9648L107.047 23.689L130.259 27.1823L130.671 24.4582Z" fill="#E0E0E0"/>
<path d="M127.594 30.9609L108.478 28.084L108.066 30.8082L127.182 33.685L127.594 30.9609Z" fill="#FF57B9"/>
<path d="M119.854 59.0466L80.258 53.0874L79.8459 55.8116L119.442 61.7707L119.854 59.0466Z" fill="#E0E0E0"/>
<path d="M113.361 65.0346L79.2271 59.8975L78.815 62.6216L112.949 67.7588L113.361 65.0346Z" fill="#E0E0E0"/>
<path d="M108.236 71.2278L78.1972 66.707L77.7851 69.4312L107.824 73.9519L108.236 71.2278Z" fill="#E0E0E0"/>
<path d="M115.397 79.2701L77.1674 73.5166L76.7553 76.2408L114.985 81.9943L115.397 79.2701Z" fill="#E0E0E0"/>
<path d="M91.1571 82.5859L76.1386 80.3257L75.7266 83.0498L90.745 85.3101L91.1571 82.5859Z" fill="#FF57B9"/>
<g opacity="0.5">
<path opacity="0.5" d="M103.06 24.7116C103.297 23.1423 103.123 21.5384 102.554 20.0561C101.986 18.5739 101.042 17.2637 99.8152 16.2531C98.5883 15.2425 97.1201 14.5659 95.5534 14.2892C93.9866 14.0125 92.3748 14.1451 90.8747 14.6741C89.3745 15.2031 88.0372 16.1104 86.993 17.3078C85.9487 18.5053 85.233 19.9519 84.9155 21.5071C84.598 23.0623 84.6895 24.6729 85.1812 26.1823C85.6728 27.6917 86.5479 29.0485 87.7211 30.1205C87.7211 30.1336 87.7211 30.1482 87.7211 30.1613C87.9752 30.4921 88.2925 30.7694 88.6549 30.9769L88.6729 30.9377C89.0441 31.3667 90.7529 32.2214 92.8183 32.5264H92.8641C94.1723 32.7254 95.6261 32.7075 96.9752 32.2214C96.9752 32.2214 96.9899 32.1986 97.0144 32.1562C97.3532 32.0553 97.6735 31.9005 97.9629 31.6978L97.9923 31.5967C99.333 30.9444 100.495 29.977 101.378 28.7776C102.26 27.5783 102.838 26.1829 103.06 24.7116Z" fill="url(#paint1_linear)"/>
</g>
<path d="M102.746 24.3363C103.482 19.4664 100.122 14.923 95.2394 14.1882C90.3572 13.4534 85.8023 16.8056 85.0657 21.6755C84.3291 26.5454 87.6897 31.0888 92.5719 31.8236C97.4541 32.5583 102.009 29.2062 102.746 24.3363Z" fill="#F5F5F5"/>
<path d="M89.8306 25.9431C89.8306 25.9431 87.7048 25.7979 87.677 29.7094C87.9238 30.0292 88.2317 30.297 88.5829 30.4972L90.3719 26.6755L89.8306 25.9431Z" fill="#FDA57D"/>
<path d="M96.6661 26.9727C96.6661 26.9727 98.7462 27.462 97.6113 31.2055C97.2811 31.4396 96.9075 31.6059 96.5124 31.6948L95.9318 27.5175L96.6661 26.9727Z" fill="#FDA57D"/>
<path d="M90.8707 19.6865C90.8707 19.6865 89.4283 22.4448 88.923 22.0892C88.923 22.0892 93.5116 27.4279 98.8573 23.5833C98.4415 22.5442 97.9024 21.5585 97.2515 20.6473L90.8707 19.6865Z" fill="#333333"/>
<path d="M98.2198 20.5154C98.5462 18.357 97.0568 16.3433 94.893 16.0177C92.7291 15.6921 90.7103 17.1777 90.3839 19.3361C90.0574 21.4944 91.5469 23.5081 93.7107 23.8338C95.8745 24.1594 97.8933 22.6737 98.2198 20.5154Z" fill="#333333"/>
<path opacity="0.1" d="M96.6252 26.9661L89.7897 25.9385L88.7399 28.5695C88.7399 28.5695 88.1741 29.7749 88.5567 30.4013C88.9394 31.0277 93.1012 32.9443 96.5696 31.7062C96.9586 31.021 97.1114 30.2273 97.0046 29.4471C96.8329 28.1193 96.9277 29.3427 96.9277 29.3427L96.6252 26.9661Z" fill="black"/>
<path opacity="0.1" d="M96.7168 26.9807L89.8813 25.9531L88.8331 28.5825C88.8331 28.5825 88.2673 29.788 88.65 30.4143C89.0326 31.0407 93.1944 32.9573 96.6628 31.7192C97.0518 31.034 97.2046 30.2403 97.0978 29.4601C96.9261 28.1323 97.0209 29.3557 97.0209 29.3557L96.7168 26.9807Z" fill="black"/>
<path d="M96.6661 26.9724L89.8306 25.9448L88.7808 28.5759C88.7808 28.5759 88.215 29.7813 88.5976 30.4076C88.9803 31.034 93.1421 32.9506 96.6105 31.7126C96.9995 31.0273 97.1523 30.2337 97.0455 29.4534C96.8738 28.1257 96.9686 29.349 96.9686 29.349L96.6661 26.9724Z" fill="#FDD835"/>
<path opacity="0.1" d="M92.2674 24.0046L95.0017 24.4161L94.6294 26.8774C94.5859 27.1653 94.4295 27.4241 94.1946 27.597C93.9597 27.7698 93.6656 27.8426 93.377 27.7991L92.8175 27.7149C92.5289 27.6715 92.2694 27.5155 92.0961 27.2812C91.9228 27.0469 91.85 26.7536 91.8935 26.4657L92.2658 24.0044L92.2674 24.0046Z" fill="black"/>
<path d="M92.2807 23.9038L95.015 24.3153L94.6427 26.7766C94.5992 27.0645 94.4427 27.3233 94.2079 27.4962C93.973 27.669 93.6789 27.7417 93.3903 27.6983L92.8324 27.6143C92.5438 27.5709 92.2843 27.4149 92.1111 27.1806C91.9378 26.9463 91.8649 26.653 91.9084 26.3651L92.2807 23.9038Z" fill="#FDA57D"/>
<path opacity="0.1" d="M92.2296 24.2891C93.0609 24.7502 94.0303 24.8989 94.9621 24.7083L95.0128 24.3739L92.2786 23.9629L92.2296 24.2891Z" fill="black"/>
<path d="M98.0915 21.363C98.4179 19.2047 96.9285 17.191 94.7647 16.8654C92.6008 16.5397 90.5821 18.0254 90.2556 20.1838C89.9291 22.3421 91.4186 24.3558 93.5824 24.6814C95.7462 25.0071 97.765 23.5214 98.0915 21.363Z" fill="#FDA57D"/>
<path d="M90.6434 18.7223L98.1166 19.8462C98.1166 19.8462 97.9334 16.747 95.0799 16.5072C92.2263 16.2674 90.6434 18.7223 90.6434 18.7223Z" fill="#333333"/>
<path d="M90.7244 20.0825C90.7814 19.7057 90.6647 19.3758 90.4638 19.3455C90.2629 19.3153 90.0538 19.5962 89.9968 19.973C89.9398 20.3498 90.0565 20.6798 90.2574 20.71C90.4583 20.7403 90.6674 20.4593 90.7244 20.0825Z" fill="#FDA57D"/>
<path d="M98.3799 21.2354C98.4369 20.8586 98.3202 20.5286 98.1193 20.4983C97.9183 20.4681 97.7093 20.7491 97.6523 21.1259C97.5953 21.5027 97.712 21.8326 97.9129 21.8629C98.1138 21.8931 98.3229 21.6122 98.3799 21.2354Z" fill="#FDA57D"/>
<path opacity="0.1" d="M90.6319 18.8234L98.1051 19.9472C98.1051 19.9472 97.922 16.8481 95.0684 16.6083C92.2149 16.3685 90.6319 18.8234 90.6319 18.8234Z" fill="black"/>
<g opacity="0.5">
<path opacity="0.5" d="M64.1889 12.6882L0.0536652 23.0273L14.3753 111.419L78.5106 101.079L64.1889 12.6882Z" fill="url(#paint2_linear)"/>
</g>
<path d="M63.2246 13.2047L0.921509 23.3926L15.082 109.553L77.3851 99.365L63.2246 13.2047Z" fill="#F5F5F5"/>
<path d="M60.3365 52.0405L15.3698 59.3936L15.8166 62.1123L60.7834 54.7592L60.3365 52.0405Z" fill="#E0E0E0"/>
<path d="M61.4534 58.8369L16.4866 66.1899L16.9335 68.9087L61.9002 61.5556L61.4534 58.8369Z" fill="#E0E0E0"/>
<path d="M56.764 30.2935L33.5988 34.0815L34.0456 36.8003L57.2108 33.0123L56.764 30.2935Z" fill="#E0E0E0"/>
<path d="M55.8362 37.4243L36.7586 40.5439L37.2055 43.2627L56.283 40.1431L55.8362 37.4243Z" fill="#FF57B9"/>
<path d="M57.1207 66.5244L17.6035 72.9863L18.0504 75.705L57.5675 69.2431L57.1207 66.5244Z" fill="#E0E0E0"/>
<path d="M52.7861 74.2102L18.7202 79.7808L19.167 82.4995L53.2329 76.929L52.7861 74.2102Z" fill="#E0E0E0"/>
<path d="M49.8155 81.6755L19.8372 86.5776L20.284 89.2964L50.2624 84.3943L49.8155 81.6755Z" fill="#E0E0E0"/>
<path d="M59.1077 87.1336L20.9542 93.3726L21.401 96.0913L59.5546 89.8524L59.1077 87.1336Z" fill="#E0E0E0"/>
<path d="M37.0606 97.7185L22.0722 100.169L22.519 102.888L37.5074 100.437L37.0606 97.7185Z" fill="#FF57B9"/>
<g opacity="0.5">
<path opacity="0.5" d="M31.4038 38.407C31.139 36.797 30.4608 35.2828 29.4353 34.0117C28.4097 32.7407 27.0718 31.7561 25.5516 31.1538C24.0315 30.5516 22.3809 30.3521 20.7606 30.5748C19.1402 30.7976 17.6052 31.4349 16.3051 32.4249C15.0049 33.4149 13.9838 34.7237 13.3412 36.2241C12.6985 37.7244 12.4562 39.3652 12.6379 40.9866C12.8195 42.6081 13.4188 44.155 14.3776 45.4769C15.3364 46.7988 16.6219 47.8505 18.109 48.5299L18.1221 48.5707C18.4755 48.8126 18.8735 48.9822 19.293 49.0698V49.0257C19.7917 49.3291 21.7344 49.6276 23.8521 49.2753H23.8979C25.2405 49.0584 26.6566 48.5821 27.8226 47.6817C27.8226 47.6817 27.8226 47.6556 27.8389 47.6066C28.1387 47.4013 28.4032 47.1491 28.6222 46.8596C28.6222 46.8226 28.6222 46.7867 28.6222 46.7519C29.7299 45.6905 30.562 44.3761 31.0466 42.9222C31.5312 41.4684 31.6538 39.9187 31.4038 38.407Z" fill="url(#paint3_linear)"/>
</g>
<path d="M23.5429 48.9792C28.5517 48.1602 31.9464 43.446 31.1253 38.4499C30.3042 33.4538 25.5781 30.0676 20.5693 30.8866C15.5606 31.7057 12.1658 36.4198 12.9869 41.4159C13.808 46.4121 18.5341 49.7983 23.5429 48.9792Z" fill="#F5F5F5"/>
<path d="M18.7108 44.1143C18.7108 44.1143 16.585 44.6444 17.7951 48.4776C18.1377 48.7142 18.524 48.8805 18.9316 48.9669L19.4729 44.664L18.7108 44.1143Z" fill="#4D8AF0"/>
<path d="M25.7229 42.968C25.7229 42.968 27.9125 42.7902 27.9861 46.8126C27.7361 47.1423 27.4232 47.4194 27.0655 47.6282L25.1751 43.7232L25.7229 42.968Z" fill="#4D8AF0"/>
<path d="M21.8317 40.8244C24.0518 40.4614 25.5565 38.3719 25.1925 36.1574C24.8286 33.9429 22.7338 32.442 20.5137 32.8051C18.2936 33.1681 16.789 35.2576 17.1529 37.4721C17.5169 39.6865 19.6116 41.1874 21.8317 40.8244Z" fill="#333333"/>
<path d="M25.682 42.9741L18.6699 44.1159L18.4753 47.021C18.4753 47.021 18.3118 48.3797 18.876 48.8707C19.4402 49.3617 24.1285 49.9277 27.1194 47.618C27.2831 46.8251 27.1814 46.0005 26.83 45.2708C26.2413 44.0262 26.7204 45.1925 26.7204 45.1925L25.682 42.9741Z" fill="#4D8AF0"/>
<path d="M25.7752 42.9595L18.7632 44.1013L18.5686 47.0063C18.5686 47.0063 18.405 48.3651 18.9692 48.8561C19.5334 49.347 24.2217 49.913 27.2126 47.6033C27.3763 46.8104 27.2747 45.9858 26.9232 45.2561C26.3345 44.0116 26.8136 45.1778 26.8136 45.1778L25.7752 42.9595Z" fill="#4D8AF0"/>
<path d="M25.7229 42.9678L18.7108 44.1096L18.5162 47.0195C18.5162 47.0195 18.3527 48.3783 18.9169 48.8693C19.4811 49.3602 24.1694 49.9262 27.1603 47.6165C27.324 46.8236 27.2223 45.999 26.8709 45.2693C26.2822 44.0248 26.7613 45.191 26.7613 45.191L25.7229 42.9678Z" fill="#4D8AF0"/>
<path opacity="0.1" d="M20.4824 41.4397L23.2871 40.9811L23.7069 43.5356C23.7542 43.8229 23.685 44.1171 23.5147 44.3536C23.3444 44.5901 23.087 44.7494 22.7989 44.7965L22.1647 44.9002C21.8767 44.9473 21.5817 44.8783 21.3446 44.7085C21.1076 44.5386 20.9479 44.2818 20.9006 43.9945L20.4808 41.4399L20.4824 41.4397Z" fill="black"/>
<path d="M20.4657 41.3362L23.2704 40.8775L23.6902 43.4321C23.7374 43.7194 23.6683 44.0136 23.498 44.2501C23.3277 44.4866 23.0702 44.6459 22.7822 44.693L22.148 44.7967C21.86 44.8438 21.565 44.7748 21.3279 44.605C21.0909 44.4351 20.9311 44.1783 20.8839 43.891L20.4641 41.3364L20.4657 41.3362Z" fill="#FDA57D"/>
<path opacity="0.1" d="M20.5342 41.7392C21.4934 41.9287 22.489 41.769 23.3403 41.289L23.2831 40.9448L20.4786 41.4048L20.5342 41.7392Z" fill="black"/>
<path d="M21.976 41.695C24.1961 41.332 25.7008 39.2425 25.3368 37.028C24.9729 34.8135 22.8781 33.3127 20.658 33.6757C18.4379 34.0387 16.9332 36.1282 17.2972 38.3427C17.6611 40.5571 19.7559 42.058 21.976 41.695Z" fill="#FDA57D"/>
<path opacity="0.1" d="M17.2374 36.8949L24.9053 35.6422C24.9053 35.6422 23.7426 32.6605 20.8776 33.3325C18.0126 34.0046 17.2374 36.8949 17.2374 36.8949Z" fill="black"/>
<path d="M17.2195 36.7921L24.8938 35.5378C24.8938 35.5378 23.7311 32.556 20.8661 33.228C18.0011 33.9001 17.2195 36.7921 17.2195 36.7921Z" fill="#333333"/>
<path d="M17.5142 39.0983C17.7217 39.0648 17.8389 38.7232 17.776 38.3353C17.7131 37.9473 17.494 37.6599 17.2866 37.6934C17.0792 37.7268 16.962 38.0684 17.0248 38.4564C17.0877 38.8443 17.3068 39.1317 17.5142 39.0983Z" fill="#FDA57D"/>
<path d="M25.3193 37.5731C25.5261 37.5393 25.6422 37.1984 25.5786 36.8117C25.5151 36.4249 25.2959 36.1389 25.0892 36.1727C24.8824 36.2065 24.7663 36.5474 24.8298 36.9341C24.8934 37.3208 25.1125 37.6069 25.3193 37.5731Z" fill="#FDA57D"/>
<g opacity="0.5">
<path opacity="0.5" d="M111.001 26.9902H46.2178V116.274H111.001V26.9902Z" fill="url(#paint4_linear)"/>
</g>
<path d="M110.177 27.6479H47.042V114.958H110.177V27.6479Z" fill="white"/>
<g opacity="0.5">
<path opacity="0.5" d="M55.4735 47.6248C55.4737 45.9566 55.9068 44.3168 56.7308 42.8651C57.5547 41.4135 58.7414 40.1993 60.1754 39.3407C61.6093 38.4822 63.2417 38.0086 64.9136 37.966C66.5855 37.9235 68.2399 38.3133 69.7159 39.0977C71.1919 39.8821 72.4392 41.0343 73.3364 42.4422C74.2335 43.85 74.75 45.4656 74.8356 47.1316C74.9211 48.7976 74.5728 50.4574 73.8245 51.9493C73.0762 53.4412 71.9534 54.7145 70.5654 55.6451V55.6876C70.249 55.9904 69.8755 56.2277 69.4665 56.3857L69.4535 56.3433C69.0005 56.7315 67.0905 57.353 64.8959 57.3464H64.8485C63.4585 57.3464 61.9508 57.1018 60.623 56.3857C60.623 56.3857 60.6115 56.3596 60.5935 56.3123C60.2571 56.1545 59.9484 55.9436 59.6794 55.6876L59.6647 55.5783C58.3719 54.6909 57.3149 53.5032 56.5848 52.1176C55.8546 50.732 55.4732 49.1901 55.4735 47.6248Z" fill="url(#paint5_linear)"/>
</g>
<path d="M65.1592 56.9971C70.3487 56.9971 74.5555 52.8009 74.5555 47.6245C74.5555 42.4482 70.3487 38.252 65.1592 38.252C59.9698 38.252 55.7629 42.4482 55.7629 47.6245C55.7629 52.8009 59.9698 56.9971 65.1592 56.9971Z" fill="#F5F5F5"/>
<path d="M61.4733 51.1953C61.4733 51.1953 59.2346 51.3764 59.8266 55.4542C60.1336 55.748 60.496 55.9781 60.8928 56.1312L62.1519 51.8788L61.4733 51.1953Z" fill="#BE7C5E"/>
<path d="M68.7388 51.1953C68.7388 51.1953 70.9775 51.3764 70.3856 55.4542C70.0785 55.748 69.7161 55.9781 69.3194 56.1312L68.0651 51.8657L68.7388 51.1953Z" fill="#BE7C5E"/>
<path d="M61.5698 44.5254C61.5698 44.5254 61.3981 45.0262 61.1528 45.6052C60.6197 46.871 61.228 51.7351 62.5035 52.2538C63.9344 52.8361 65.8166 53.208 67.7708 52.4968C69.4698 51.8786 69.9931 46.3425 68.7928 44.9935C68.6522 44.8304 68.505 44.6787 68.3513 44.5254H61.5698Z" fill="#333333"/>
<path d="M65.1658 48.3911C67.4661 48.3911 69.3308 46.5311 69.3308 44.2366C69.3308 41.9421 67.4661 40.082 65.1658 40.082C62.8655 40.082 61.0007 41.9421 61.0007 44.2366C61.0007 46.5311 62.8655 48.3911 65.1658 48.3911Z" fill="#333333"/>
<path opacity="0.1" d="M68.6963 51.1953H61.4308L60.7522 54.0939C60.7522 54.0939 60.3531 55.4363 60.8486 56.0268C61.3441 56.6172 65.9719 57.9597 69.3733 56.123C69.6697 55.35 69.7036 54.5014 69.4698 53.7073C69.0822 52.3551 69.3733 53.611 69.3733 53.611L68.6963 51.1953Z" fill="black"/>
<path opacity="0.1" d="M68.7928 51.1953H61.524L60.8453 54.0939C60.8453 54.0939 60.4463 55.4363 60.9418 56.0268C61.4373 56.6172 66.0652 57.9597 69.4665 56.123C69.7629 55.35 69.7968 54.5014 69.563 53.7073C69.1754 52.3551 69.4665 53.611 69.4665 53.611L68.7928 51.1953Z" fill="black"/>
<path d="M68.7388 51.1953H61.4733L60.7947 54.0939C60.7947 54.0939 60.3957 55.4363 60.8911 56.0268C61.3866 56.6172 66.0145 57.9597 69.4158 56.123C69.7122 55.35 69.7461 54.5014 69.5123 53.7073C69.1248 52.3551 69.4158 53.611 69.4158 53.611L68.7388 51.1953Z" fill="#3AD29F"/>
<path opacity="0.1" d="M63.7022 48.7891H66.6081V51.4609C66.6081 51.752 66.4921 52.0313 66.2857 52.2371C66.0793 52.443 65.7994 52.5586 65.5075 52.5586H64.8011C64.5092 52.5586 64.2293 52.443 64.0229 52.2371C63.8165 52.0313 63.7006 51.752 63.7006 51.4609V48.7891H63.7022Z" fill="black"/>
<path d="M63.7022 48.6816H66.6081V51.3535C66.6081 51.6446 66.4921 51.9238 66.2857 52.1297C66.0793 52.3356 65.7994 52.4512 65.5075 52.4512H64.8011C64.5092 52.4512 64.2293 52.3356 64.0229 52.1297C63.8165 51.9238 63.7006 51.6446 63.7006 51.3535V48.6816H63.7022Z" fill="#BE7C5E"/>
<path opacity="0.1" d="M63.7071 49.0924C64.6446 49.4388 65.6755 49.4388 66.613 49.0924V48.7368H63.7071V49.0924Z" fill="black"/>
<path d="M65.1658 49.2934C67.4661 49.2934 69.3308 47.4334 69.3308 45.1389C69.3308 42.8444 67.4661 40.9844 65.1658 40.9844C62.8655 40.9844 61.0007 42.8444 61.0007 45.1389C61.0007 47.4334 62.8655 49.2934 65.1658 49.2934Z" fill="#BE7C5E"/>
<path d="M61.1822 43.5614H69.1264C69.1264 43.5614 68.4478 40.3611 65.4454 40.5666C62.443 40.7721 61.1822 43.5614 61.1822 43.5614Z" fill="#333333"/>
<path d="M61.0874 45.6867C61.3014 45.6867 61.4749 45.3625 61.4749 44.9625C61.4749 44.5625 61.3014 44.2383 61.0874 44.2383C60.8733 44.2383 60.6998 44.5625 60.6998 44.9625C60.6998 45.3625 60.8733 45.6867 61.0874 45.6867Z" fill="#BE7C5E"/>
<path d="M69.2245 45.6867C69.4386 45.6867 69.6121 45.3625 69.6121 44.9625C69.6121 44.5625 69.4386 44.2383 69.2245 44.2383C69.0105 44.2383 68.837 44.5625 68.837 44.9625C68.837 45.3625 69.0105 45.6867 69.2245 45.6867Z" fill="#BE7C5E"/>
<path opacity="0.1" d="M61.1822 43.6674H69.1264C69.1264 43.6674 68.4478 40.4671 65.4454 40.6726C62.443 40.8781 61.1822 43.6674 61.1822 43.6674Z" fill="black"/>
<path d="M101.027 65.5068H55.4604V68.2618H101.027V65.5068Z" fill="#E0E0E0"/>
<path d="M101.027 72.3936H55.4604V75.1486H101.027V72.3936Z" fill="#E0E0E0"/>
<path d="M101.029 43.4702H77.5546V46.2252H101.029V43.4702Z" fill="#E0E0E0"/>
<path d="M98.9571 50.3564H79.6249V53.1115H98.9571V50.3564Z" fill="#FF57B9"/>
<path d="M95.505 79.2803H55.4604V82.0353H95.505V79.2803Z" fill="#E0E0E0"/>
<path d="M89.9811 86.167H55.4604V88.922H89.9811V86.167Z" fill="#E0E0E0"/>
<path d="M85.8389 93.0552H55.4604V95.8102H85.8389V93.0552Z" fill="#E0E0E0"/>
<path d="M94.1232 99.9419H55.4604V102.697H94.1232V99.9419Z" fill="#E0E0E0"/>
<path d="M70.6488 106.829H55.4604V109.584H70.6488V106.829Z" fill="#FF57B9"/>
<g opacity="0.5">
<path opacity="0.5" d="M106.631 122.002C114.253 122.002 120.432 115.839 120.432 108.236C120.432 100.634 114.253 94.4712 106.631 94.4712C99.0099 94.4712 92.8314 100.634 92.8314 108.236C92.8314 115.839 99.0099 122.002 106.631 122.002Z" fill="url(#paint6_linear)"/>
</g>
<path d="M106.631 121.191C113.804 121.191 119.619 115.391 119.619 108.236C119.619 101.082 113.804 95.2817 106.631 95.2817C99.4587 95.2817 93.6441 101.082 93.6441 108.236C93.6441 115.391 99.4587 121.191 106.631 121.191Z" fill="#69F0AE"/>
<path d="M100.995 106.507L105.865 110.96L112.764 100.841L115.2 102.865L105.865 115.009L98.9653 107.318L100.995 106.507Z" fill="white"/>
</g>
<defs>
<linearGradient id="paint0_linear" x1="97.6266" y1="93.1089" x2="110.915" y2="4.8141" gradientUnits="userSpaceOnUse">
<stop stop-color="#808080" stop-opacity="0.25"/>
<stop offset="0.54" stop-color="#808080" stop-opacity="0.12"/>
<stop offset="1" stop-color="#808080" stop-opacity="0.1"/>
</linearGradient>
<linearGradient id="paint1_linear" x1="10801.2" y1="13523.8" x2="11112.4" y2="11455.7" gradientUnits="userSpaceOnUse">
<stop stop-color="#808080" stop-opacity="0.25"/>
<stop offset="0.54" stop-color="#808080" stop-opacity="0.12"/>
<stop offset="1" stop-color="#808080" stop-opacity="0.1"/>
</linearGradient>
<linearGradient id="paint2_linear" x1="35982.1" y1="29148.1" x2="28181.4" y2="-19240.9" gradientUnits="userSpaceOnUse">
<stop stop-color="#808080" stop-opacity="0.25"/>
<stop offset="0.54" stop-color="#808080" stop-opacity="0.12"/>
<stop offset="1" stop-color="#808080" stop-opacity="0.1"/>
</linearGradient>
<linearGradient id="paint3_linear" x1="7423.38" y1="-729.292" x2="7067.91" y2="-2903.13" gradientUnits="userSpaceOnUse">
<stop stop-color="#808080" stop-opacity="0.25"/>
<stop offset="0.54" stop-color="#808080" stop-opacity="0.12"/>
<stop offset="1" stop-color="#808080" stop-opacity="0.1"/>
</linearGradient>
<linearGradient id="paint4_linear" x1="31188.1" y1="63672.3" x2="31188.1" y2="14800.8" gradientUnits="userSpaceOnUse">
<stop stop-color="#808080" stop-opacity="0.25"/>
<stop offset="0.54" stop-color="#808080" stop-opacity="0.12"/>
<stop offset="1" stop-color="#808080" stop-opacity="0.1"/>
</linearGradient>
<linearGradient id="paint5_linear" x1="9842.65" y1="8326.39" x2="9842.65" y2="6022.65" gradientUnits="userSpaceOnUse">
<stop stop-color="#808080" stop-opacity="0.25"/>
<stop offset="0.54" stop-color="#808080" stop-opacity="0.12"/>
<stop offset="1" stop-color="#808080" stop-opacity="0.1"/>
</linearGradient>
<linearGradient id="paint6_linear" x1="18090.1" y1="20685.6" x2="18090.1" y2="16039.3" gradientUnits="userSpaceOnUse">
<stop stop-color="#808080" stop-opacity="0.25"/>
<stop offset="0.54" stop-color="#808080" stop-opacity="0.12"/>
<stop offset="1" stop-color="#808080" stop-opacity="0.1"/>
</linearGradient>
<clipPath id="clip0">
<rect width="143" height="122" fill="white"/>
</clipPath>
</defs>
</svg>
