<svg xmlns="http://www.w3.org/2000/svg" viewBox="0 0 504.4 504"><defs><style>.cls-1{fill:#fff;}</style></defs><g id="Layer_2" data-name="Layer 2"><g id="Layer_1-2" data-name="Layer 1"><path class="cls-1" d="M377.6,0H126.4C56.8,0,0,56.8,0,126.4V378c0,69.2,56.8,126,126.4,126H378c69.6,0,126.4-56.8,126.4-126.4V126.4C504,56.8,447.2,0,377.6,0ZM168,408H96V200h72ZM131.6,168a36.8,36.8,0,1,1,36.8-36.8C168,151.6,151.6,168,131.6,168ZM408.4,408H348V307.2c0-24.4-3.2-55.6-36.4-55.6-34,0-39.6,26.4-39.6,54V408H212V200h56v28h1.6c8.8-16,29.2-28.4,61.2-28.4,66,0,77.6,38,77.6,94.4V408Z"/></g></g></svg>