<svg width="166" height="112" viewBox="0 0 166 112" fill="none" xmlns="http://www.w3.org/2000/svg">
<g clip-path="url(#clip0)">
<path opacity="0.1" d="M90.3431 24.8588C80.3747 24.5113 70.8806 21.2852 61.8147 17.7549C52.7488 14.2246 43.7676 10.3129 34.0379 8.44269C27.7799 7.23967 20.6239 7.06979 15.5811 10.4333C10.7293 13.6764 9.16138 19.2591 8.31886 24.4449C7.68428 28.3458 7.31154 32.4506 9.04894 36.1029C10.255 38.6387 12.3974 40.7699 13.8792 43.1991C19.0344 51.6496 15.3901 62.0706 9.80366 70.3219C7.18524 74.1935 4.1448 77.8891 2.12245 82.0062C0.100109 86.1234 -0.834822 90.8474 0.934921 95.051C2.68772 99.2207 6.86641 102.346 11.3932 104.547C20.5869 109.018 31.4164 110.297 41.984 111.021C65.368 112.625 88.8784 111.93 112.326 111.235C121.002 110.978 129.718 110.717 138.254 109.371C142.993 108.624 147.888 107.44 151.329 104.576C155.699 100.94 156.777 94.7885 153.851 90.2328C148.94 82.59 135.368 80.692 131.931 72.4886C130.041 67.9745 131.982 62.9462 134.728 58.7581C140.617 49.7763 150.49 41.8957 151.009 31.6291C151.366 24.5762 146.621 17.5155 139.283 14.1783C131.591 10.6819 120.926 11.1205 115.255 16.9102C109.413 22.8712 99.1441 25.1645 90.3431 24.8588Z" fill="#FF57B9"/>
<path opacity="0.1" d="M55.1208 6.68071C56.9608 6.68071 58.4523 5.18518 58.4523 3.34036C58.4523 1.49553 56.9608 0 55.1208 0C53.2808 0 51.7892 1.49553 51.7892 3.34036C51.7892 5.18518 53.2808 6.68071 55.1208 6.68071Z" fill="#FF57B9"/>
<path opacity="0.1" d="M105.81 11.292C107.65 11.292 109.142 9.79651 109.142 7.95168C109.142 6.10686 107.65 4.61133 105.81 4.61133C103.97 4.61133 102.479 6.10686 102.479 7.95168C102.479 9.79651 103.97 11.292 105.81 11.292Z" fill="#FF57B9"/>
<path opacity="0.1" d="M148.498 62.0137C150.338 62.0137 151.83 60.5182 151.83 58.6734C151.83 56.8285 150.338 55.333 148.498 55.333C146.658 55.333 145.167 56.8285 145.167 58.6734C145.167 60.5182 146.658 62.0137 148.498 62.0137Z" fill="#FF57B9"/>
<path opacity="0.1" d="M160.415 49.3794C163.499 49.3794 165.998 46.873 165.998 43.7813C165.998 40.6895 163.499 38.1831 160.415 38.1831C157.331 38.1831 154.832 40.6895 154.832 43.7813C154.832 46.873 157.331 49.3794 160.415 49.3794Z" fill="#FF57B9"/>
<path opacity="0.1" d="M153.023 76.5473C156.107 76.5473 158.607 74.041 158.607 70.9492C158.607 67.8574 156.107 65.3511 153.023 65.3511C149.94 65.3511 147.44 67.8574 147.44 70.9492C147.44 74.041 149.94 76.5473 153.023 76.5473Z" fill="#FF57B9"/>
<path opacity="0.1" d="M7.51486 59.8144C10.5985 59.8144 13.0983 57.3081 13.0983 54.2163C13.0983 51.1245 10.5985 48.6182 7.51486 48.6182C4.43124 48.6182 1.93147 51.1245 1.93147 54.2163C1.93147 57.3081 4.43124 59.8144 7.51486 59.8144Z" fill="#FF57B9"/>
<path d="M112.248 107.92C112.126 107.667 112.023 107.406 111.94 107.138C111.786 106.521 111.979 105.864 111.99 105.222C111.982 104.777 111.93 104.334 111.836 103.9C111.534 102.234 111.233 100.567 110.933 98.8978C110.794 98.1257 110.654 97.3535 110.588 96.5813C110.522 95.8092 110.53 94.9861 110.517 94.1877C110.477 91.5978 110.024 89.0219 109.923 86.4352C109.867 85.0885 109.769 83.745 109.655 82.4014C109.468 80.0958 109.265 77.7855 108.863 75.5076C108.543 73.6977 107.631 72.0113 107.62 70.1751C107.611 69.2228 107.602 68.2699 107.592 67.3166C107.585 66.5012 107.571 65.6533 107.213 64.9182C106.905 64.2696 106.348 63.7739 105.803 63.3044C104.185 61.9042 102.512 60.573 100.781 59.3108C101.31 59.3664 101.869 59.4158 102.352 59.195C102.836 58.9742 103.19 58.3719 102.955 57.8931C102.801 57.592 102.476 57.4298 102.155 57.3186C101.534 57.1313 100.891 57.0275 100.242 57.0098C100.303 56.7624 100.35 56.5118 100.384 56.2592C100.721 53.6015 99.3936 50.9947 99.3967 48.3153C99.3967 45.5587 100.792 43.0245 101.599 40.3899C102.868 36.2038 102.67 31.7085 101.039 27.6508C100.167 25.5057 98.8976 23.4935 98.4725 21.2187C98.1398 19.4366 98.3462 17.5911 98.0474 15.8043C97.2773 11.2579 93.2403 7.76154 88.8059 6.55543C85.3758 5.62884 81.8887 5.91763 78.4401 6.55543C75.4767 7.10521 72.7704 5.89137 69.8147 6.28054C68.6534 6.43497 67.4458 6.81333 66.6988 7.71676C66.266 8.23874 66.0242 8.89044 65.6591 9.46338C64.3407 11.5343 61.7176 12.2262 59.5413 13.3566C56.2328 15.0754 53.5975 18.2876 53.1046 21.9878C52.6425 25.4162 53.9918 28.8183 54.1966 32.2714C54.4569 36.6804 52.8612 40.9566 51.5089 45.1602C51.1315 46.3339 50.768 47.5431 50.8358 48.7739C50.8805 49.6156 51.1285 50.4325 51.3918 51.234C51.82 52.5313 52.3021 53.8177 52.8489 55.0732C51.8255 55.4923 50.7514 55.7743 49.6544 55.9118C48.5331 56.0384 47.3441 55.9936 46.3676 56.565C45.916 56.8479 45.5271 57.2206 45.2247 57.6599C44.7602 58.3088 44.4291 59.0439 44.2506 59.8223C44.0721 60.6007 44.0498 61.4069 44.185 62.1941C43.7584 62.4103 43.5597 62.9199 43.5335 63.3971C43.5073 63.8743 43.6182 64.3499 43.6352 64.8271C43.669 65.7305 43.3764 66.6062 43.1377 67.4772C42.3405 70.4045 42.1409 73.4631 42.5508 76.4697C43.21 81.2818 43.3394 86.0599 43.5474 90.9153C43.686 94.0965 43.4257 97.3103 43.9509 100.451C44.1265 101.502 44.4392 102.613 45.2755 103.276C45.4844 103.416 45.6831 103.571 45.8701 103.739C46.3321 104.224 46.3506 104.975 46.5062 105.623C46.9421 107.439 48.8242 108.783 50.6772 108.607L50.7003 108.622C50.3537 109.632 50.0164 110.604 49.6729 111.595H102.451C102.42 111.472 102.386 111.347 102.36 111.223C102.276 110.701 102.264 110.17 102.325 109.645C102.765 110.162 102.69 110.922 102.808 111.595H112.712C112.754 110.341 112.726 109.069 112.248 107.92Z" fill="url(#paint0_linear)"/>
<path d="M70.0735 6.89053C68.9214 7.04496 67.7231 7.42023 66.9791 8.31748C66.5494 8.83637 66.3107 9.48344 65.9487 10.0517C64.6395 12.1103 62.0349 12.7975 59.874 13.9203C56.5902 15.6283 53.9748 18.8188 53.485 22.4958C53.0307 25.9026 54.3661 29.2816 54.5632 32.713C54.822 37.0943 53.2371 41.3427 51.894 45.52C51.5197 46.6845 51.1593 47.8859 51.2255 49.109C51.2717 49.9461 51.5166 50.7568 51.7784 51.5537C53.0106 55.2971 54.6833 58.9463 57.1693 62.001C59.6553 65.0556 63.0222 67.4957 66.842 68.3991C68.5856 68.8114 70.3846 68.901 72.1759 68.9674C74.9176 69.0703 77.6597 69.1218 80.4024 69.1218C81.9087 69.1218 83.4243 69.1048 84.903 68.813C88.0405 68.2045 90.8083 66.4224 93.4883 64.6773C96.5765 62.6697 99.9573 60.1988 100.429 56.5418C100.764 53.901 99.446 51.3112 99.4475 48.6488C99.4475 45.9108 100.834 43.3982 101.636 40.7728C102.896 36.6114 102.699 32.1433 101.079 28.1094C100.215 25.9798 98.9531 23.9799 98.5311 21.7191C98.2015 19.9493 98.4063 18.1162 98.109 16.3402C97.3528 11.8231 93.3343 8.34991 88.9292 7.15152C85.5237 6.22493 82.0612 6.51835 78.6388 7.15152C75.7015 7.70902 73.0154 6.50445 70.0735 6.89053Z" fill="#3F3D56"/>
<path d="M71.0069 44.7483C71.623 47.5914 71.2148 50.7017 69.6206 53.1324C68.8305 54.3401 67.7723 55.3516 66.6464 56.2489C64.8979 57.6681 62.9127 58.766 60.7827 59.4919C62.1107 60.5421 63.6489 61.2927 65.2926 61.6926C66.5494 62.0014 67.8463 62.0895 69.1432 62.1559C75.6376 62.503 82.15 62.2674 88.6026 61.4517C90.759 61.1783 93.0077 60.8015 94.7528 59.4981C94.9081 59.4028 95.0286 59.2598 95.0963 59.0904C95.2211 58.6626 94.7128 58.3383 94.2923 58.1947C92.2114 57.4812 89.9704 57.0704 88.1714 55.8041C85.4143 53.866 84.2653 50.3063 84.0204 46.9397C83.7755 43.5731 84.2561 40.1787 83.928 36.8198C79.4798 36.7519 75.0336 36.8811 70.5895 37.2074C70.095 37.2445 67.854 37.121 67.5891 37.5503C67.2903 38.0367 68.5332 39.2166 68.8413 39.6845C69.8709 41.2227 70.6054 42.9401 71.0069 44.7483Z" fill="#FBBEBE"/>
<path opacity="0.1" d="M77.1679 44.8497C85.5596 44.8497 92.3624 38.0289 92.3624 29.6151C92.3624 21.2012 85.5596 14.3804 77.1679 14.3804C68.7762 14.3804 61.9733 21.2012 61.9733 29.6151C61.9733 38.0289 68.7762 44.8497 77.1679 44.8497Z" fill="black"/>
<path d="M77.1679 44.3112C85.5596 44.3112 92.3624 37.4904 92.3624 29.0765C92.3624 20.6626 85.5596 13.8418 77.1679 13.8418C68.7762 13.8418 61.9733 20.6626 61.9733 29.0765C61.9733 37.4904 68.7762 44.3112 77.1679 44.3112Z" fill="#FBBEBE"/>
<path d="M69.137 39.6597H66.5186V68.9168H69.137V39.6597Z" fill="#FF57B9"/>
<path d="M98.4972 85.1552C97.2542 90.2592 96.4748 95.5377 97.0001 100.765C97.3482 104.226 98.5603 107.994 98.6235 111.52H60.9521C60.9429 109.616 60.9352 107.644 60.9259 105.673C60.9259 105.312 60.9259 104.95 60.9259 104.592C60.9259 104.129 60.9259 103.655 60.9259 103.187C60.9182 101.76 60.9121 100.348 60.9059 98.9784C60.8951 96.5075 60.8828 94.0366 60.6456 91.5657C60.2251 87.1891 59.1054 82.9052 57.6344 78.7587C57.5282 78.4498 57.4188 78.1533 57.3079 77.8506L57.2709 77.7518C57.16 77.4429 57.0445 77.1341 56.929 76.8252C55.0961 71.9421 53.0014 66.8721 54.0025 61.7944C54.3757 59.9721 55.1344 58.2513 56.2275 56.7482C57.3207 55.2451 58.7228 53.9947 60.3391 53.0813C61.3372 52.5254 62.4369 52.1007 63.5736 52.0821C65.5344 52.0513 67.2933 53.2049 68.926 54.2952C69.6961 54.814 70.4893 55.3314 71.2887 55.8256C73.1986 57.0101 75.184 58.0648 77.3265 58.7181C80.3639 59.6447 83.7955 59.6817 86.5803 58.142C87.1245 57.8356 87.64 57.4806 88.1205 57.0811C89.0592 56.2811 89.911 55.384 90.6619 54.4048C91.3982 55.8441 93.0031 56.451 94.3324 57.3668C96.2007 58.6563 97.5083 60.6423 98.337 62.7626C99.1656 64.883 99.5353 67.147 99.8511 69.4032C100.159 71.6301 100.422 73.8817 100.295 76.1225C100.116 79.1957 99.2242 82.1701 98.4972 85.1552Z" fill="#3F3D56"/>
<path d="M70.3692 73.8366C70.925 74.4696 71.4258 75.149 71.8663 75.8674C72.0727 76.2087 72.2422 76.7013 71.9403 76.9623C71.7769 77.0737 71.5815 77.128 71.3842 77.1168L67.7616 77.2712C67.2148 77.2944 66.6495 77.316 66.1366 77.1168C65.4219 76.848 64.9183 76.2118 64.4547 75.6049L62.8482 73.5061C62.4246 72.9517 61.9903 72.3742 61.844 71.6916C61.6976 71.009 61.9348 70.1921 62.5633 69.8894C63.1085 69.6268 63.7554 69.8183 64.3284 70.0129C65.4173 70.382 66.7127 70.6306 67.6769 71.2623C68.6827 71.9248 69.5899 72.9348 70.3692 73.8366Z" fill="#F86D70"/>
<path opacity="0.1" d="M70.3692 73.8366C70.925 74.4696 71.4258 75.149 71.8663 75.8674C72.0727 76.2087 72.2422 76.7013 71.9403 76.9623C71.7769 77.0737 71.5815 77.128 71.3842 77.1168L67.7616 77.2712C67.2148 77.2944 66.6495 77.316 66.1366 77.1168C65.4219 76.848 64.9183 76.2118 64.4547 75.6049L62.8482 73.5061C62.4246 72.9517 61.9903 72.3742 61.844 71.6916C61.6976 71.009 61.9348 70.1921 62.5633 69.8894C63.1085 69.6268 63.7554 69.8183 64.3284 70.0129C65.4173 70.382 66.7127 70.6306 67.6769 71.2623C68.6827 71.9248 69.5899 72.9348 70.3692 73.8366Z" fill="black"/>
<path opacity="0.1" d="M68.313 74.0781C68.7548 71.7129 69.3605 69.3815 70.1259 67.1009C70.5001 65.989 70.9129 64.8771 71.0362 63.7034C71.1317 62.7938 71.0469 61.8718 71.1286 60.9607C71.1994 60.1731 71.3935 59.4025 71.5075 58.621C71.7394 57.033 71.644 55.4141 71.2271 53.8645C70.896 52.6291 71.2133 51.1357 70.4247 50.135C70.1043 49.7288 69.6777 49.42 69.3465 49.0231C69.0153 48.6262 68.7766 48.0857 68.9399 47.5946C70.0609 47.8517 71.221 47.8889 72.3561 47.7043C72.694 47.6675 73.019 47.554 73.3065 47.3722C73.4488 47.2795 73.5622 47.1485 73.6338 46.9942C73.7054 46.8399 73.7324 46.6686 73.7116 46.4997C73.6453 46.1646 73.3465 45.9314 73.0585 45.7507C72.0519 45.1278 70.9199 44.7365 69.7443 44.6051C68.5687 44.4737 67.3786 44.6055 66.2599 44.9909C66.2262 44.903 66.2247 44.8061 66.2557 44.7172C66.2868 44.6284 66.3483 44.5535 66.4293 44.506C66.5941 44.4159 66.7744 44.3577 66.9607 44.3346C67.5311 44.2063 68.061 43.9381 68.5026 43.554C68.9443 43.17 69.284 42.682 69.4913 42.1339C69.5622 41.9826 69.5796 41.8115 69.5406 41.649C69.4112 41.2706 68.8752 41.2922 68.487 41.388L66.3954 41.9038C65.9893 41.9859 65.5954 42.1198 65.2233 42.3022C64.7612 42.5555 64.3838 42.9555 64.0219 43.3477C62.9252 44.5384 61.8039 45.7646 61.2001 47.2672C60.9275 47.9483 60.7673 48.6694 60.4824 49.3443C60.1974 50.0192 59.76 50.6678 59.1069 50.9952C58.42 51.338 58.0981 52.1318 58.2105 52.8916C58.323 53.6514 58.7419 54.3278 59.1655 54.9687C59.9448 56.1869 60.8254 57.3368 61.7978 58.4064C62.4524 59.1013 63.184 59.7592 63.5998 60.6178C63.8971 61.2247 64.0234 61.9012 64.2853 62.5235C64.4329 62.8099 64.5452 63.1133 64.6195 63.4269C64.6469 63.6539 64.6428 63.8837 64.6072 64.1095C64.1682 67.5333 61.636 70.3239 60.6888 73.6441C60.6341 73.7996 60.6116 73.9646 60.6225 74.1291C60.6641 74.4379 60.9306 74.6757 61.177 74.8657C63.0176 76.2556 65.2664 76.9799 67.4674 77.6748C67.8725 76.5536 68.0943 75.2549 68.313 74.0781Z" fill="black"/>
<path d="M68.0049 73.9233C68.4467 71.5581 69.0525 69.2267 69.8178 66.9461C70.1921 65.8342 70.6049 64.7223 70.7281 63.5486C70.8236 62.639 70.7389 61.717 70.8205 60.8059C70.8914 60.0183 71.0854 59.2477 71.1994 58.4662C71.4313 56.8782 71.3359 55.2593 70.9191 53.7097C70.5879 52.4743 70.9052 50.9809 70.1166 49.9802C69.7962 49.5741 69.3696 49.2652 69.0384 48.8683C68.7073 48.4714 68.4686 47.9309 68.6318 47.4398C69.7529 47.6969 70.9129 47.7341 72.0481 47.5495C72.3859 47.5127 72.711 47.3992 72.9984 47.2174C73.1407 47.1247 73.2541 46.9937 73.3257 46.8394C73.3974 46.6851 73.4243 46.5138 73.4035 46.3449C73.3373 46.0098 73.0385 45.7766 72.7504 45.5959C71.7438 44.973 70.6119 44.5817 69.4362 44.4503C68.2606 44.3189 67.0705 44.4507 65.9518 44.8361C65.9181 44.7483 65.9166 44.6513 65.9477 44.5624C65.9787 44.4736 66.0402 44.3987 66.1212 44.3512C66.286 44.2611 66.4663 44.203 66.6526 44.1798C67.2231 44.0515 67.7529 43.7833 68.1946 43.3992C68.6362 43.0152 68.9759 42.5272 69.1832 41.9791C69.2542 41.8278 69.2716 41.6568 69.2325 41.4942C69.1031 41.1158 68.5671 41.1375 68.179 41.2332L66.0873 41.749C65.6813 41.8311 65.2873 41.965 64.9152 42.1474C64.4531 42.4007 64.0758 42.8007 63.7138 43.1929C62.6172 44.3836 61.4959 45.6098 60.8921 47.1124C60.6195 47.7935 60.4593 48.5147 60.1743 49.1895C59.8894 49.8644 59.4519 50.513 58.7989 50.8404C58.1119 51.1832 57.79 51.977 57.9025 52.7368C58.0149 53.4966 58.4338 54.173 58.8574 54.8139C59.6367 56.0321 60.5173 57.182 61.4897 58.2516C62.1443 58.9465 62.8759 59.6044 63.2918 60.463C63.589 61.07 63.7154 61.7464 63.9772 62.3687C64.1249 62.6551 64.2371 62.9585 64.3114 63.2721C64.3388 63.4992 64.3347 63.7289 64.2991 63.9547C63.8601 67.3785 61.328 70.1691 60.3807 73.4893C60.3261 73.6448 60.3035 73.8098 60.3145 73.9743C60.3561 74.2831 60.6225 74.5209 60.869 74.7109C62.7096 76.1008 64.9583 76.8251 67.1593 77.52C67.5644 76.3988 67.7862 75.1001 68.0049 73.9233Z" fill="#FBBEBE"/>
<path d="M69.3973 73.06C69.4396 73.0741 69.4782 73.0977 69.51 73.129C69.5419 73.1603 69.5662 73.1985 69.581 73.2407C69.5959 73.2829 69.6009 73.3279 69.5958 73.3723C69.5906 73.4167 69.5754 73.4594 69.5513 73.497C69.0467 75.0226 68.3812 76.4897 67.566 77.8736C65.9364 76.9717 64.3417 76.0076 62.782 74.9811C62.4108 74.7371 62.0257 74.4715 61.8224 74.0746C59.549 69.6301 67.874 72.172 69.3973 73.06Z" fill="#3F3D56"/>
<path opacity="0.1" d="M60.2282 75.2142C59.6938 75.9354 59.07 76.5871 58.534 77.3114C57.579 78.6102 56.9444 80.1112 56.1943 81.5397C55.2123 83.4191 54.0258 85.1837 52.6564 86.8012C51.2702 88.4305 49.6206 90.0952 49.4665 92.231C49.445 92.5399 49.4496 92.8596 49.2771 93.1097C49.1231 93.3352 48.8504 93.451 48.6471 93.6379C48.4438 93.8248 48.3268 94.1753 48.5285 94.3606C47.7384 94.4456 47.4103 95.4015 47.2578 96.1829L46.9082 97.9867C46.7997 98.4568 46.7429 98.9373 46.7388 99.4198C46.7588 100.075 46.9729 100.706 47.2008 101.319C48.0379 103.532 49.1274 105.64 50.4477 107.602C51.0792 108.541 51.8108 109.484 52.8474 109.934C53.7977 110.344 54.8759 110.287 55.9094 110.221C57.3726 110.128 59.0746 109.893 59.8016 108.618C60.2637 107.807 60.1928 106.765 60.6965 105.977C60.9568 105.574 61.3465 105.274 61.6622 104.914C62.2444 104.25 62.5602 103.4 62.8513 102.566C64.1875 98.7372 65.2579 94.8207 66.055 90.8442C66.3214 89.5099 66.5617 88.1571 67.1085 86.9124C67.6137 85.7588 68.3654 84.7365 69.06 83.6848C70.3615 81.7127 70.5556 80.0031 71.4551 77.8164C69.4728 77.3531 68.5563 76.0358 66.8667 74.9161C65.2725 73.8614 62.9175 71.6144 61.2356 70.8052C60.6749 72.1904 61.1416 73.9834 60.2282 75.2142Z" fill="black"/>
<path opacity="0.1" d="M59.0192 74.1351C58.4831 74.8563 57.8593 75.5095 57.3249 76.2338C56.3715 77.5326 55.7353 79.0337 54.9868 80.4606C54.0019 82.3398 52.8139 84.1048 51.4442 85.7236C50.058 87.3529 48.4069 89.0177 48.2544 91.1519C48.2328 91.4608 48.2359 91.782 48.0634 92.0306C47.8909 92.2793 47.6367 92.3735 47.435 92.5588C47.2332 92.7441 47.113 93.0977 47.3164 93.2831C46.5247 93.3665 46.1966 94.3224 46.0457 95.1054L45.696 96.9076C45.5864 97.3775 45.529 97.8581 45.5251 98.3407C45.5451 98.997 45.7592 99.6287 45.9871 100.242C46.8245 102.454 47.914 104.561 49.234 106.522C49.8655 107.463 50.5971 108.405 51.6337 108.854C52.5855 109.267 53.6637 109.208 54.6972 109.143C56.1589 109.051 57.8609 108.814 58.5894 107.54C59.0515 106.729 58.9791 105.687 59.4843 104.899C59.7431 104.495 60.1328 104.197 60.4485 103.835C61.0307 103.171 61.3465 102.322 61.6376 101.486C62.9747 97.6584 64.0451 93.7418 64.8413 89.7651C65.1077 88.4324 65.348 87.078 65.8948 85.8333C66.4 84.6812 67.1532 83.6573 67.8463 82.6072C69.1494 80.6336 69.0785 79.463 69.9718 77.2747C67.9911 76.8114 67.3426 74.9582 65.6592 73.837C64.0665 72.7823 61.71 70.5353 60.028 69.7261C59.4643 71.1129 59.931 72.9058 59.0192 74.1351Z" fill="black"/>
<path d="M59.6907 74.6738C59.1562 75.3966 58.5324 76.0483 57.9964 76.7726C57.043 78.0713 56.4084 79.5724 55.6583 80.9994C54.6729 82.8813 53.4833 84.6484 52.1111 86.2686C50.7249 87.8978 49.0753 89.5626 48.9213 91.6984C48.8997 92.0072 48.9043 92.3269 48.7318 92.5756C48.5593 92.8242 48.3052 92.9184 48.1019 93.1053C47.8986 93.2921 47.7815 93.6427 47.9833 93.828C47.1931 93.9129 46.8651 94.8673 46.7126 95.6503L46.3629 97.4541C46.2545 97.9241 46.1976 98.4047 46.1935 98.8872C46.212 99.542 46.4276 100.174 46.6556 100.787C47.4933 102.999 48.5828 105.107 49.9024 107.069C50.5355 108.008 51.2671 108.95 52.3037 109.399C53.254 109.812 54.3322 109.753 55.3657 109.688C56.8289 109.595 58.5309 109.361 59.2579 108.085C59.7199 107.274 59.6491 106.232 60.1528 105.444C60.4115 105.041 60.8027 104.742 61.1185 104.38C61.7007 103.718 62.0165 102.867 62.3076 102.033C63.6439 98.2048 64.7139 94.2882 65.5097 90.3116C65.7777 88.9773 66.018 87.6245 66.5648 86.3782C67.07 85.2262 67.8216 84.2023 68.5148 83.1521C69.8189 81.1773 70.9284 79.08 71.8278 76.8899C69.8471 76.4266 68.0126 75.5001 66.323 74.382C64.7288 73.3272 62.3738 71.0802 60.6918 70.271C60.1374 71.6516 60.6041 73.4507 59.6907 74.6738Z" fill="#F86D70"/>
<path d="M64.7966 77.3409C65.3904 77.3409 65.8717 76.8583 65.8717 76.263C65.8717 75.6677 65.3904 75.1851 64.7966 75.1851C64.2028 75.1851 63.7215 75.6677 63.7215 76.263C63.7215 76.8583 64.2028 77.3409 64.7966 77.3409Z" fill="#3F3D56"/>
<path d="M61.4343 82.5992C62.028 82.5992 62.5093 82.1166 62.5093 81.5213C62.5093 80.926 62.028 80.4434 61.4343 80.4434C60.8405 80.4434 60.3592 80.926 60.3592 81.5213C60.3592 82.1166 60.8405 82.5992 61.4343 82.5992Z" fill="#3F3D56"/>
<path d="M57.9379 87.9923C58.5316 87.9923 59.013 87.5097 59.013 86.9144C59.013 86.319 58.5316 85.8364 57.9379 85.8364C57.3441 85.8364 56.8628 86.319 56.8628 86.9144C56.8628 87.5097 57.3441 87.9923 57.9379 87.9923Z" fill="#3F3D56"/>
<path d="M112.667 111.52H102.835C102.717 110.851 102.793 110.096 102.356 109.583C102.295 110.105 102.307 110.633 102.391 111.151C102.417 111.274 102.451 111.398 102.482 111.52H89.975C89.8903 109.939 90.129 108.411 90.4232 106.821C90.8315 104.561 91.0622 102.273 91.1132 99.9777C91.1764 97.1424 90.9669 94.3085 90.9592 91.4732C90.9469 88.6643 91.1271 85.8578 91.4983 83.0736C91.8372 80.5132 92.3408 77.9187 91.9219 75.369C91.4598 72.5229 91.0563 69.6365 90.6989 66.7734C90.6405 66.1385 90.5193 65.511 90.337 64.9001C90.1792 64.473 89.9982 64.0549 89.7948 63.6477C88.8586 61.5776 88.2954 59.3576 88.1313 57.0905C88.0605 56.2365 86.8529 55.4628 86.8714 54.5995C88.5164 54.266 91.4459 53.8521 93.0247 54.425C94.6034 54.998 95.7833 56.4018 97.3682 56.9268C98.9084 57.4442 100.649 57.072 102.194 57.5893C102.511 57.6959 102.839 57.8596 102.987 58.1592C103.221 58.6348 102.87 59.2309 102.389 59.4518C101.909 59.6726 101.353 59.6217 100.829 59.5676C102.545 60.8206 104.207 62.143 105.815 63.535C106.356 63.9982 106.902 64.4955 107.215 65.1395C107.569 65.8684 107.583 66.7116 107.591 67.5208L107.619 70.3624C107.635 72.1862 108.535 73.8618 108.851 75.6594C109.25 77.9233 109.451 80.2182 109.638 82.51C109.746 83.8442 109.849 85.1801 109.903 86.5175C110.004 89.0872 110.454 91.6461 110.493 94.219C110.505 95.0127 110.493 95.8081 110.563 96.5972C110.634 97.3864 110.768 98.1415 110.905 98.8982L111.802 103.874C111.897 104.306 111.948 104.746 111.956 105.188C111.945 105.828 111.754 106.475 111.908 107.092C111.992 107.357 112.095 107.615 112.216 107.865C112.684 109.01 112.709 110.275 112.667 111.52Z" fill="#F86D70"/>
<path d="M77.7716 22.8065C85.7925 22.8065 92.2946 20.2711 92.2946 17.1435C92.2946 14.0159 85.7925 11.4805 77.7716 11.4805C69.7508 11.4805 63.2487 14.0159 63.2487 17.1435C63.2487 20.2711 69.7508 22.8065 77.7716 22.8065Z" fill="#3F3D56"/>
<path d="M87.5291 23.4766C83.4798 21.8814 81.8887 25.3607 81.8887 25.3607C80.33 29.5303 83.2503 31.9735 85.0185 33.0205C85.6896 33.4171 86.4544 33.6261 87.2334 33.6259C87.7973 33.6259 88.3557 33.5147 88.8768 33.2985C92.9353 31.6229 93.3189 27.827 93.3189 27.827C94.0366 22.1794 87.5291 23.4766 87.5291 23.4766ZM91.7494 27.9119C91.5911 28.9195 91.1761 29.869 90.5444 30.6685C89.9127 31.468 89.0857 32.0904 88.1436 32.4754C87.7209 32.6534 87.2668 32.7448 86.8082 32.7441C86.1738 32.7436 85.5517 32.5689 85.0092 32.2391C83.5722 31.3665 81.1987 29.3296 82.4663 25.8595C82.4663 25.8595 83.7586 22.9608 87.0485 24.2889C87.0485 24.2889 92.3377 23.2017 91.7494 27.9119Z" fill="#F86D70"/>
<path d="M87.0485 24.2892C87.0485 24.2892 92.3377 23.2081 91.7494 27.9121C91.5912 28.9197 91.1761 29.8693 90.5444 30.6688C89.9127 31.4683 89.0857 32.0907 88.1437 32.4756C87.7209 32.6536 87.2668 32.745 86.8083 32.7443C86.1739 32.7438 85.5517 32.5692 85.0092 32.2393C83.5722 31.3668 81.1987 29.3298 82.4663 25.8597C82.4663 25.8597 83.7586 22.9611 87.0485 24.2892Z" fill="#3F3D56"/>
<path opacity="0.1" d="M87.0485 24.2892C87.0485 24.2892 92.3377 23.2081 91.7494 27.9121C91.5912 28.9197 91.1761 29.8693 90.5444 30.6688C89.9127 31.4683 89.0857 32.0907 88.1437 32.4756C87.7209 32.6536 87.2668 32.745 86.8083 32.7443C86.1739 32.7438 85.5517 32.5692 85.0092 32.2393C83.5722 31.3668 81.1987 29.3298 82.4663 25.8597C82.4663 25.8597 83.7586 22.9611 87.0485 24.2892Z" fill="url(#paint1_radial)"/>
<path opacity="0.1" d="M69.1663 41.3585C77.2313 41.3585 83.7694 34.8032 83.7694 26.7169C83.7694 18.6305 77.2313 12.0752 69.1663 12.0752C61.1012 12.0752 54.5632 18.6305 54.5632 26.7169C54.5632 34.8032 61.1012 41.3585 69.1663 41.3585Z" fill="black"/>
<path d="M69.1663 40.7375C76.8894 40.7375 83.1502 34.4601 83.1502 26.7166C83.1502 18.9731 76.8894 12.6958 69.1663 12.6958C61.4432 12.6958 55.1824 18.9731 55.1824 26.7166C55.1824 34.4601 61.4432 40.7375 69.1663 40.7375Z" fill="#FF57B9"/>
<path d="M76.4963 18.9567L61.5559 27.0659C61.5043 27.093 61.4614 27.1342 61.4322 27.1848C61.4031 27.2353 61.3888 27.2931 61.391 27.3515C61.3933 27.4099 61.412 27.4664 61.445 27.5145C61.478 27.5627 61.5239 27.6004 61.5775 27.6234L64.1281 28.5871C64.2762 28.6418 64.3968 28.7528 64.4639 28.8959L66.44 32.9899C66.477 33.1706 66.8097 33.2185 66.8143 33.0347L66.5063 29.6542C66.5241 29.4038 66.6194 29.1652 66.7789 28.9716L74.5279 21.3597C74.5497 21.3383 74.5765 21.3228 74.6058 21.3144C74.6351 21.3061 74.666 21.3052 74.6958 21.3118C74.7251 21.3184 74.7523 21.3324 74.7747 21.3525C74.7971 21.3726 74.814 21.3981 74.8237 21.4266C74.8334 21.4551 74.8357 21.4857 74.8303 21.5153C74.8249 21.545 74.812 21.5727 74.7928 21.596L68.1128 29.7901C67.9717 29.9902 67.8818 30.2219 67.8509 30.465L67.4504 33.3853C67.4843 33.6401 67.683 33.7374 67.8432 33.5088L69.2818 31.8101C69.3293 31.7453 69.4001 31.7016 69.4792 31.6884C69.5583 31.6751 69.6394 31.6933 69.7054 31.739L73.4143 34.4493C73.4549 34.4795 73.5024 34.4988 73.5524 34.5056C73.6025 34.5123 73.6535 34.5062 73.7005 34.4879C73.7476 34.4695 73.7893 34.4395 73.8216 34.4006C73.854 34.3617 73.876 34.3153 73.8856 34.2655L76.9276 19.2857C76.9389 19.2292 76.9342 19.1706 76.9141 19.1167C76.8939 19.0627 76.8592 19.0155 76.8137 18.9803C76.7682 18.9451 76.7137 18.9234 76.6566 18.9176C76.5994 18.9118 76.5418 18.9221 76.4901 18.9475L76.4963 18.9567Z" fill="white"/>
</g>
<defs>
<linearGradient id="paint0_linear" x1="77.5313" y1="111.595" x2="77.5313" y2="5.96396" gradientUnits="userSpaceOnUse">
<stop stop-color="#808080" stop-opacity="0.25"/>
<stop offset="0.54" stop-color="#808080" stop-opacity="0.12"/>
<stop offset="1" stop-color="#808080" stop-opacity="0.1"/>
</linearGradient>
<radialGradient id="paint1_radial" cx="0" cy="0" r="1" gradientUnits="userSpaceOnUse" gradientTransform="translate(86.95 28.343) scale(4.62228 4.6345)">
<stop stop-color="white"/>
<stop offset="1"/>
</radialGradient>
<clipPath id="clip0">
<rect width="166" height="112" fill="white"/>
</clipPath>
</defs>
</svg>
